<?xml version="1.0" encoding="UTF-8" standalone="no"?>
<!DOCTYPE svg PUBLIC "-//W3C//DTD SVG 1.1//EN"
 "http://www.w3.org/Graphics/SVG/1.1/DTD/svg11.dtd">
<!-- Generated by graphviz version 2.40.1 (20161225.0304)
 -->
<!-- Title: dependencies Pages: 1 -->
<svg width="504pt" height="287pt"
 viewBox="0.00 0.00 504.00 287.00" xmlns="http://www.w3.org/2000/svg" xmlns:xlink="http://www.w3.org/1999/xlink">
<g id="graph0" class="graph" transform="scale(1 1) rotate(0) translate(4 283)">
<title>dependencies</title>
<polygon fill="#ffffff" stroke="transparent" points="-4,4 -4,-283 500,-283 500,4 -4,4"/>
<text text-anchor="start" x="227.0091" y="-42.4" font-family="sans-serif" font-weight="bold" font-size="14.00" fill="#000000">Legend</text>
<polygon fill="#ffffb3" stroke="transparent" points="14,-10 14,-30 34,-30 34,-10 14,-10"/>
<text text-anchor="start" x="37.629" y="-15.4" font-family="sans-serif" font-size="14.00" fill="#000000"> &#160;Declarations</text>
<polygon fill="#8dd3c7" stroke="transparent" points="127,-10 127,-30 147,-30 147,-10 127,-10"/>
<text text-anchor="start" x="150.7251" y="-15.4" font-family="sans-serif" font-size="14.00" fill="#000000"> &#160;Module</text>
<polygon fill="#80b1d3" stroke="transparent" points="213,-10 213,-30 233,-30 233,-10 213,-10"/>
<text text-anchor="start" x="236.7812" y="-15.4" font-family="sans-serif" font-size="14.00" fill="#000000"> &#160;Bootstrap</text>
<polygon fill="#fdb462" stroke="transparent" points="310,-10 310,-30 330,-30 330,-10 310,-10"/>
<text text-anchor="start" x="333.6732" y="-15.4" font-family="sans-serif" font-size="14.00" fill="#000000"> &#160;Providers</text>
<polygon fill="#fb8072" stroke="transparent" points="406,-10 406,-30 426,-30 426,-10 406,-10"/>
<text text-anchor="start" x="429.7258" y="-15.4" font-family="sans-serif" font-size="14.00" fill="#000000"> &#160;Exports</text>
<g id="clust1" class="cluster">
<title>cluster_AppModule</title>
<polygon fill="none" stroke="#000000" stroke-dasharray="1,5" points="91,-70 91,-271 231,-271 231,-70 91,-70"/>
</g>
<g id="clust2" class="cluster">
<title>cluster_AppModule_declarations</title>
<polygon fill="none" stroke="#000000" points="100,-78 100,-130 222,-130 222,-78 100,-78"/>
</g>
<g id="clust6" class="cluster">
<title>cluster_AppModule_bootstrap</title>
<polygon fill="none" stroke="#000000" points="99,-211 99,-263 223,-263 223,-211 99,-211"/>
</g>
<g id="clust8" class="cluster">
<title>cluster_AppServerModule</title>
<polygon fill="none" stroke="#000000" stroke-dasharray="1,5" points="239,-138 239,-263 405,-263 405,-138 239,-138"/>
</g>
<g id="clust9" class="cluster">
<title>cluster_AppServerModule_declarations</title>
<polygon fill="none" stroke="#000000" points="247,-146 247,-198 397,-198 397,-146 247,-146"/>
</g>
<!-- AppComponent -->
<g id="node1" class="node">
<title>AppComponent</title>
<polygon fill="#ffffb3" stroke="#000000" points="213.9399,-122 108.0601,-122 108.0601,-86 213.9399,-86 213.9399,-122"/>
<text text-anchor="middle" x="161" y="-99.8" font-family="Times,serif" font-size="14.00" fill="#000000">AppComponent</text>
</g>
<!-- AppModule -->
<g id="node2" class="node">
<title>AppModule</title>
<polygon fill="#8dd3c7" stroke="#000000" points="202.6571,-190 199.6571,-194 178.6571,-194 175.6571,-190 119.3429,-190 119.3429,-154 202.6571,-154 202.6571,-190"/>
<text text-anchor="middle" x="161" y="-167.8" font-family="Times,serif" font-size="14.00" fill="#000000">AppModule</text>
</g>
<!-- AppComponent&#45;&gt;AppModule -->
<g id="edge1" class="edge">
<title>AppComponent&#45;&gt;AppModule</title>
<path fill="none" stroke="#000000" d="M161,-122.2228C161,-122.2228 161,-143.7269 161,-143.7269"/>
<polygon fill="#000000" stroke="#000000" points="157.5001,-143.7269 161,-153.7269 164.5001,-143.727 157.5001,-143.7269"/>
</g>
<!-- AppComponent  -->
<g id="node3" class="node">
<title>AppComponent </title>
<polygon fill="#80b1d3" stroke="#000000" points="215.439,-255 106.561,-255 106.561,-219 215.439,-219 215.439,-255"/>
<text text-anchor="middle" x="161" y="-232.8" font-family="Times,serif" font-size="14.00" fill="#000000">AppComponent </text>
</g>
<!-- AppModule&#45;&gt;AppComponent  -->
<g id="edge2" class="edge">
<title>AppModule&#45;&gt;AppComponent </title>
<path fill="none" stroke="#000000" stroke-dasharray="1,5" d="M161,-190.1061C161,-190.1061 161,-208.991 161,-208.991"/>
<polygon fill="#000000" stroke="#000000" points="157.5001,-208.9909 161,-218.991 164.5001,-208.991 157.5001,-208.9909"/>
</g>
<!-- AppServerModule -->
<g id="node5" class="node">
<title>AppServerModule</title>
<polygon fill="#8dd3c7" stroke="#000000" points="367.1895,-255 364.1895,-259 343.1895,-259 340.1895,-255 246.8105,-255 246.8105,-219 367.1895,-219 367.1895,-255"/>
<text text-anchor="middle" x="307" y="-232.8" font-family="Times,serif" font-size="14.00" fill="#000000">AppServerModule</text>
</g>
<!-- AppModule&#45;&gt;AppServerModule -->
<g id="edge4" class="edge">
<title>AppModule&#45;&gt;AppServerModule</title>
<path fill="none" stroke="#000000" d="M202.791,-172C226.2674,-172 250.8983,-172 250.8983,-172 250.8983,-172 250.8983,-208.8939 250.8983,-208.8939"/>
<polygon fill="#000000" stroke="#000000" points="247.3984,-208.8938 250.8983,-218.8939 254.3984,-208.8939 247.3984,-208.8938"/>
</g>
<!-- AppShellComponent -->
<g id="node4" class="node">
<title>AppShellComponent</title>
<polygon fill="#ffffb3" stroke="#000000" points="389.2176,-190 254.7824,-190 254.7824,-154 389.2176,-154 389.2176,-190"/>
<text text-anchor="middle" x="322" y="-167.8" font-family="Times,serif" font-size="14.00" fill="#000000">AppShellComponent</text>
</g>
<!-- AppShellComponent&#45;&gt;AppServerModule -->
<g id="edge3" class="edge">
<title>AppShellComponent&#45;&gt;AppServerModule</title>
<path fill="none" stroke="#000000" d="M310.993,-190.1061C310.993,-190.1061 310.993,-208.991 310.993,-208.991"/>
<polygon fill="#000000" stroke="#000000" points="307.4931,-208.9909 310.993,-218.991 314.4931,-208.991 307.4931,-208.9909"/>
</g>
<!-- AppServerModule&#45;&gt;AppComponent  -->
<g id="edge5" class="edge">
<title>AppServerModule&#45;&gt;AppComponent </title>
<path fill="none" stroke="#000000" stroke-dasharray="1,5" d="M246.7733,-237C246.7733,-237 225.4753,-237 225.4753,-237"/>
<polygon fill="#000000" stroke="#000000" points="225.4753,-233.5001 215.4753,-237 225.4753,-240.5001 225.4753,-233.5001"/>
</g>
</g>
</svg>
